<svg xmlns="http://www.w3.org/2000/svg" width="1254" height="836" viewBox="0 0 1254 836">
<g>
<path d="M 356.97 443.25 C356.99,582.42 356.75,617.99 355.75,617.96 C353.25,617.87 342.99,613.10 337.56,609.49 C326.07,601.87 316.01,586.93 313.99,574.50 C313.38,570.77 313.01,502.42 313.01,393.67 L 313.00 218.84 L 316.25 219.48 C328.26,221.84 344.37,234.58 350.85,246.82 C351.50,248.05 352.08,249.07 352.60,250.12 C356.94,258.92 356.94,269.86 356.96,423.00 C356.96,429.49 356.96,436.24 356.97,443.25 ZM 920.32 591.55 C918.22,592.30 914.44,592.93 911.92,592.96 L 907.34 593.00 L 907.79 587.55 C908.35,580.72 907.54,577.36 904.99,575.99 C903.35,575.12 901.35,575.82 893.73,579.93 C873.06,591.07 850.77,593.81 828.50,587.95 C797.82,579.88 775.47,559.34 771.35,535.42 C768.68,519.96 773.03,510.69 788.38,499.17 C792.26,496.25 793.00,496.43 793.00,500.25 C793.00,508.51 796.11,520.76 800.51,529.87 C804.02,537.14 806.53,540.73 811.76,545.95 C822.23,556.37 832.02,561.16 846.65,563.02 C865.52,565.41 884.92,557.56 895.50,543.23 C913.71,518.58 911.80,484.59 891.04,464.00 C879.40,452.45 868.14,448.00 850.53,448.00 C838.23,448.00 831.58,449.36 821.51,453.92 C815.67,456.57 809.19,460.28 776.55,479.64 C771.63,482.55 767.42,484.75 767.19,484.52 C765.97,483.30 771.66,469.25 776.53,461.46 C787.99,443.11 803.58,430.71 825.00,422.91 C830.98,420.73 833.01,420.54 850.50,420.54 C872.08,420.54 874.85,421.18 890.16,429.65 C891.01,430.12 891.81,430.57 892.54,430.99 C896.26,433.09 898.59,434.41 900.07,433.77 C902.86,432.57 902.64,424.42 903.00,401.50 L 903.50 369.50 L 906.35 363.69 C910.29,355.67 919.32,348.66 929.75,345.54 L 932.00 344.87 L 931.98 461.68 C931.96,572.90 931.87,578.69 930.12,582.50 C927.87,587.40 925.30,589.77 920.32,591.55 ZM 546.20 519.90 C518.51,524.20 490.79,510.02 478.85,485.43 C474.15,475.78 472.54,466.87 473.30,454.91 C474.83,431.00 491.53,409.71 515.35,401.29 C521.43,399.14 524.37,398.74 535.00,398.64 C545.78,398.54 548.46,398.85 554.50,400.92 C574.67,407.84 588.97,422.47 596.12,443.50 C599.60,453.72 599.46,469.57 595.82,479.58 C591.07,492.62 584.46,501.36 573.74,508.77 C565.10,514.74 556.16,518.36 546.20,519.90 ZM 748.00 518.89 L 748.00 574.00 L 745.75 573.93 C735.18,573.62 721.64,563.94 716.64,553.12 C714.52,548.53 714.50,547.88 714.22,465.25 L 713.93 382.00 L 720.43 382.00 C731.49,382.00 741.14,386.50 744.65,393.29 C745.56,395.04 746.68,400.29 747.16,404.96 C748.53,418.52 751.20,419.33 757.82,408.18 C766.92,392.87 783.44,382.96 799.80,383.02 C806.02,383.04 815.83,385.40 817.77,387.34 C819.18,388.75 819.10,389.34 816.92,393.53 C812.81,401.39 804.01,408.05 792.33,412.13 C772.74,418.97 760.66,429.59 753.24,446.50 C748.12,458.17 748.00,459.87 748.00,518.89 ZM 794.86 263.45 C779.92,267.88 762.36,262.52 749.43,249.58 C740.31,240.44 737.00,233.92 737.00,225.11 C737.00,217.63 739.47,213.02 745.83,208.62 C753.85,203.07 756.31,202.68 786.29,202.23 L 814.08 201.81 L 813.43 199.66 C811.07,191.72 802.93,183.19 795.21,180.55 C784.72,176.98 771.76,179.29 760.98,186.65 C752.96,192.12 735.83,202.16 735.34,201.68 C734.49,200.82 737.16,192.59 739.70,188.26 C748.83,172.66 765.55,162.97 783.22,163.02 C798.52,163.07 807.79,166.80 818.26,177.14 C827.42,186.18 831.36,194.46 831.44,204.79 C831.50,211.66 831.31,212.33 828.69,214.58 L 825.89 217.00 L 793.69 217.00 C763.67,217.01 761.29,217.14 758.34,218.93 C751.88,222.87 753.12,230.01 761.79,238.86 C769.65,246.87 776.00,249.29 789.50,249.41 L 799.50 249.50 L 799.80 255.70 L 800.09 261.89 ZM 524.00 262.13 C516.53,264.28 504.86,264.47 497.91,262.56 C490.92,260.63 481.19,255.05 476.01,250.01 C466.67,240.92 461.63,224.80 465.69,217.03 C467.33,213.87 475.04,207.00 476.93,207.00 C477.36,207.00 477.96,210.58 478.26,214.95 C479.22,229.03 485.64,239.19 497.31,245.13 C520.61,256.99 546.82,235.76 542.00,208.94 C540.37,199.88 537.89,194.82 532.01,188.60 C525.09,181.29 518.80,178.54 509.00,178.57 C500.01,178.59 496.35,180.10 478.03,191.34 C465.70,198.92 462.26,200.37 463.34,197.56 C463.64,196.77 464.37,194.34 464.96,192.15 C466.42,186.74 473.68,177.14 479.61,172.79 C489.24,165.72 495.19,163.72 508.00,163.24 C518.05,162.87 520.24,163.10 525.34,165.02 C540.01,170.53 551.94,182.88 556.52,197.30 C559.98,208.17 559.98,221.61 556.53,231.39 C550.94,247.23 540.06,257.51 524.00,262.13 ZM 765.91 371.46 C754.92,374.05 745.60,372.94 734.67,367.73 C725.86,363.53 717.16,355.24 713.08,347.17 C709.95,340.96 707.50,330.15 708.51,326.98 C709.13,325.02 719.74,315.00 721.20,315.00 C721.64,315.00 722.00,317.00 722.00,319.45 C722.00,341.00 736.71,357.67 755.48,357.40 C767.29,357.23 777.70,350.78 783.04,340.32 C786.66,333.24 787.10,318.00 783.94,309.55 C778.09,293.95 760.46,284.82 744.91,289.34 C741.91,290.21 732.33,295.02 723.62,300.02 C714.92,305.03 707.54,308.88 707.24,308.57 C706.49,307.82 709.81,300.38 713.08,295.50 C717.27,289.25 726.06,281.51 733.09,277.89 C739.13,274.77 740.22,274.56 751.83,274.18 C762.70,273.84 764.89,274.06 770.33,276.03 C790.19,283.22 803.00,301.84 803.00,323.50 C803.00,346.79 787.93,366.27 765.91,371.46 ZM 448.45 226.41 C448.48,251.17 448.16,263.44 447.46,263.68 C446.88,263.87 443.96,262.78 440.96,261.26 C431.75,256.60 431.59,255.96 430.99,220.50 C430.51,191.78 430.39,190.32 428.23,186.26 C425.48,181.10 422.31,178.90 416.73,178.27 C410.07,177.52 405.79,179.22 386.06,190.46 C375.92,196.23 367.53,200.85 367.42,200.73 C367.31,200.60 367.04,180.79 366.82,156.69 L 366.42 112.89 L 368.96 113.52 C374.41,114.87 379.51,118.52 381.50,122.50 C383.33,126.16 383.53,128.85 383.80,153.75 C384.06,178.65 384.24,181.00 385.80,181.00 C386.73,181.00 388.72,179.07 390.20,176.72 C393.68,171.22 396.34,168.78 402.40,165.59 C406.60,163.37 408.56,163.00 416.18,163.00 C423.58,163.00 425.86,163.40 429.80,165.40 C436.37,168.73 443.23,176.38 446.05,183.55 C448.36,189.40 448.40,190.09 448.45,226.41 ZM 613.43 262.03 C604.38,265.91 593.64,265.40 584.36,260.66 C578.31,257.57 574.04,253.10 570.36,246.00 L 567.50 240.50 L 567.18 201.62 L 566.85 162.75 L 570.68 163.45 C576.26,164.47 580.26,167.10 582.25,171.03 C583.79,174.08 584.00,177.82 584.00,202.20 C584.00,218.56 584.45,232.00 585.10,235.03 C586.42,241.18 590.65,246.40 595.67,248.05 C603.69,250.70 610.82,248.26 635.00,234.56 C641.33,230.98 646.84,228.04 647.25,228.02 C647.66,228.01 648.00,236.10 648.00,246.00 C648.00,263.43 647.94,264.00 645.97,264.00 C640.15,264.00 632.73,257.97 631.53,252.25 C631.15,250.46 630.37,249.00 629.79,249.00 C629.21,249.00 626.36,251.47 623.46,254.50 C620.45,257.63 616.14,260.87 613.43,262.03 ZM 708.71 262.28 C702.99,264.05 692.92,265.10 689.00,264.34 C678.19,262.23 670.28,258.00 665.77,251.92 C663.67,249.08 661.62,241.43 662.55,239.92 C663.20,238.87 672.43,234.00 673.77,234.00 C674.22,234.00 675.16,235.54 675.84,237.43 C678.42,244.58 690.52,251.08 698.27,249.49 C710.83,246.91 716.34,238.25 710.72,229.91 C707.80,225.58 702.83,222.81 691.00,218.89 C673.43,213.08 665.31,207.39 663.06,199.28 C661.98,195.38 661.60,187.00 662.51,187.00 C662.79,187.00 665.61,188.75 668.76,190.88 C676.96,196.44 683.01,199.29 698.64,204.98 C714.63,210.80 721.46,214.96 725.80,221.51 C735.64,236.37 727.18,256.55 708.71,262.28 ZM 841.23 303.28 C832.76,303.49 831.68,303.77 824.09,307.71 C819.64,310.02 815.96,311.60 815.90,311.21 C815.85,310.82 815.88,308.91 815.96,306.97 C816.11,303.79 815.78,303.32 812.59,302.17 C808.24,300.60 805.28,296.61 804.41,291.14 L 803.74 287.00 L 815.00 287.00 L 815.00 272.18 C815.00,255.11 816.17,247.20 819.56,241.36 C824.41,232.99 834.19,227.46 846.07,226.36 L 853.11 225.70 L 852.44 228.60 C851.36,233.24 847.93,237.69 841.68,242.57 C832.95,249.37 832.05,252.05 832.02,271.13 C832.02,271.78 832.02,272.41 832.02,273.01 C832.00,282.36 831.99,285.87 833.69,287.19 C834.71,287.98 836.34,287.98 838.95,287.98 C839.23,287.98 839.52,287.99 839.83,287.99 C844.07,288.00 848.36,292.13 850.07,297.84 C850.76,300.13 851.09,302.25 850.80,302.53 C850.51,302.82 846.21,303.16 841.23,303.28 ZM 636.90 218.55 C634.24,219.90 631.81,221.00 631.50,221.00 C630.15,221.00 629.98,216.96 630.23,190.99 L 630.50 163.50 L 633.31 163.70 C637.40,163.98 643.06,167.08 645.44,170.32 C647.26,172.81 647.54,174.88 647.84,188.17 C648.03,196.43 647.90,204.71 647.55,206.56 C646.70,211.13 642.73,215.60 636.90,218.55 ZM 719.33 187.91 C716.76,189.61 714.40,190.99 714.08,190.99 C713.76,190.98 712.25,188.70 710.71,185.92 C708.62,182.13 706.87,180.39 703.71,178.96 C698.18,176.45 690.97,176.46 686.00,179.00 C681.00,181.55 680.23,181.52 673.35,178.48 L 667.65 175.96 L 671.08 172.36 C672.96,170.38 677.20,167.46 680.50,165.88 C685.74,163.37 687.64,163.00 695.50,163.00 C703.35,163.00 705.27,163.37 710.50,165.87 C717.30,169.12 720.22,171.90 722.45,177.23 C724.88,183.05 724.46,184.51 719.33,187.91 ZM 384.00 236.00 C384.00,257.75 383.72,264.00 382.75,263.98 C380.39,263.94 373.50,260.26 371.32,257.88 C367.71,253.94 367.00,250.48 367.00,236.75 C367.00,220.41 368.43,216.62 376.59,211.40 C379.51,209.53 382.38,208.00 382.95,208.00 C383.66,208.00 384.00,217.14 384.00,236.00 ZM 832.00 343.50 L 832.00 369.00 L 816.00 369.00 L 816.00 351.21 C816.00,334.74 816.17,333.10 818.25,329.02 C820.28,325.04 828.50,318.00 831.11,318.00 C831.61,318.00 832.00,329.25 832.00,343.50 Z" fill="rgb(30,26,27)"/>
<path d="M 559.22 618.49 C513.63,624.58 465.59,609.94 429.57,579.01 C400.78,554.28 382.85,523.33 375.90,486.36 C370.77,459.08 374.07,426.85 384.66,400.79 C398.84,365.90 426.63,335.85 459.89,319.43 C483.60,307.73 500.72,303.44 528.11,302.32 C559.63,301.03 595.19,309.44 618.50,323.70 C652.61,344.56 675.88,373.14 688.96,410.21 C695.13,427.72 696.39,436.19 696.45,460.50 C696.50,484.65 695.11,494.43 689.04,512.38 C670.23,568.04 618.11,610.64 559.22,618.49 ZM 519.00 580.97 C531.16,582.46 557.11,581.40 567.00,579.02 C643.49,560.58 681.60,475.41 644.87,405.00 C627.19,371.11 596.46,347.71 560.00,340.36 C549.54,338.26 527.21,337.49 518.00,338.92 C490.36,343.22 466.85,354.99 448.07,373.93 C431.17,390.97 420.45,410.82 414.96,435.20 C413.02,443.84 412.83,446.88 413.28,463.20 C413.71,478.94 414.14,482.79 416.39,490.73 C425.90,524.36 445.97,549.61 476.73,566.60 C487.95,572.80 508.03,579.63 519.00,580.97 Z" fill="rgb(225,22,50)"/>
<path d="M 0.00 418.00 L 0.00 0.00 L 627.00 0.00 L 1254.00 0.00 L 1254.00 418.00 L 1254.00 836.00 L 627.00 836.00 L 0.00 836.00 L 0.00 418.00 ZM 559.22 618.49 C618.11,610.64 670.23,568.04 689.04,512.38 C695.11,494.43 696.50,484.65 696.45,460.50 C696.39,436.19 695.13,427.72 688.96,410.21 C675.88,373.14 652.61,344.56 618.50,323.70 C595.19,309.44 559.63,301.03 528.11,302.32 C500.72,303.44 483.60,307.73 459.89,319.43 C426.63,335.85 398.84,365.90 384.66,400.79 C374.07,426.85 370.77,459.08 375.90,486.36 C382.85,523.33 400.78,554.28 429.57,579.01 C465.59,609.94 513.63,624.58 559.22,618.49 ZM 356.97 443.25 C356.93,251.05 357.17,258.77 350.85,246.82 C344.37,234.58 328.26,221.84 316.25,219.48 L 313.00 218.84 L 313.01 393.67 C313.01,502.42 313.38,570.77 313.99,574.50 C316.01,586.93 326.07,601.87 337.56,609.49 C342.99,613.10 353.25,617.87 355.75,617.96 C356.75,617.99 356.99,582.42 356.97,443.25 ZM 920.32 591.55 C925.30,589.77 927.87,587.40 930.12,582.50 C931.87,578.69 931.96,572.90 931.98,461.68 L 932.00 344.87 L 929.75 345.54 C919.32,348.66 910.29,355.67 906.35,363.69 L 903.50 369.50 L 903.00 401.50 C902.41,439.02 903.36,436.95 890.16,429.65 C874.85,421.18 872.08,420.54 850.50,420.54 C833.01,420.54 830.98,420.73 825.00,422.91 C803.58,430.71 787.99,443.11 776.53,461.46 C771.66,469.25 765.97,483.30 767.19,484.52 C767.42,484.75 771.63,482.55 776.55,479.64 C809.19,460.28 815.67,456.57 821.51,453.92 C831.58,449.36 838.23,448.00 850.53,448.00 C868.14,448.00 879.40,452.45 891.04,464.00 C911.80,484.59 913.71,518.58 895.50,543.23 C884.92,557.56 865.52,565.41 846.65,563.02 C832.02,561.16 822.23,556.37 811.76,545.95 C806.53,540.73 804.02,537.14 800.51,529.87 C796.11,520.76 793.00,508.51 793.00,500.25 C793.00,496.43 792.26,496.25 788.38,499.17 C773.03,510.69 768.68,519.96 771.35,535.42 C775.47,559.34 797.82,579.88 828.50,587.95 C850.77,593.81 873.06,591.07 893.73,579.93 C901.35,575.82 903.35,575.12 904.99,575.99 C907.54,577.36 908.35,580.72 907.79,587.55 L 907.34 593.00 L 911.92 592.96 C914.44,592.93 918.22,592.30 920.32,591.55 ZM 748.00 518.89 C748.00,459.87 748.12,458.17 753.24,446.50 C760.66,429.59 772.74,418.97 792.33,412.13 C804.01,408.05 812.81,401.39 816.92,393.53 C819.10,389.34 819.18,388.75 817.77,387.34 C815.83,385.40 806.02,383.04 799.80,383.02 C783.44,382.96 766.92,392.87 757.82,408.18 C751.20,419.33 748.53,418.52 747.16,404.96 C746.68,400.29 745.56,395.04 744.65,393.29 C741.14,386.50 731.49,382.00 720.43,382.00 L 713.93 382.00 L 714.22 465.25 C714.50,547.88 714.52,548.53 716.64,553.12 C721.64,563.94 735.18,573.62 745.75,573.93 L 748.00 574.00 L 748.00 518.89 ZM 765.91 371.46 C787.93,366.27 803.00,346.79 803.00,323.50 C803.00,301.84 790.19,283.22 770.33,276.03 C764.89,274.06 762.70,273.84 751.83,274.18 C740.22,274.56 739.13,274.77 733.09,277.89 C726.06,281.51 717.27,289.25 713.08,295.50 C709.81,300.38 706.49,307.82 707.24,308.57 C707.54,308.88 714.92,305.03 723.62,300.02 C732.33,295.02 741.91,290.21 744.91,289.34 C760.46,284.82 778.09,293.95 783.94,309.55 C787.10,318.00 786.66,333.24 783.04,340.32 C777.70,350.78 767.29,357.23 755.48,357.40 C736.71,357.67 722.00,341.00 722.00,319.45 C722.00,317.00 721.64,315.00 721.20,315.00 C719.74,315.00 709.13,325.02 708.51,326.98 C707.50,330.15 709.95,340.96 713.08,347.17 C717.16,355.24 725.86,363.53 734.67,367.73 C745.60,372.94 754.92,374.05 765.91,371.46 ZM 832.00 343.50 C832.00,329.25 831.61,318.00 831.11,318.00 C828.50,318.00 820.28,325.04 818.25,329.02 C816.17,333.10 816.00,334.74 816.00,351.21 L 816.00 369.00 L 824.00 369.00 L 832.00 369.00 L 832.00 343.50 ZM 841.23 303.28 C846.21,303.16 850.51,302.82 850.80,302.53 C851.09,302.25 850.76,300.13 850.07,297.84 C848.36,292.13 844.07,288.00 839.83,287.99 C831.68,287.95 832.00,288.63 832.02,271.13 C832.05,252.05 832.95,249.37 841.68,242.57 C847.93,237.69 851.36,233.24 852.44,228.60 L 853.11 225.70 L 846.07 226.36 C834.19,227.46 824.41,232.99 819.56,241.36 C816.17,247.20 815.00,255.11 815.00,272.18 L 815.00 287.00 L 809.37 287.00 L 803.74 287.00 L 804.41 291.14 C805.28,296.61 808.24,300.60 812.59,302.17 C815.78,303.32 816.11,303.79 815.96,306.97 C815.88,308.91 815.85,310.82 815.90,311.21 C815.96,311.60 819.64,310.02 824.09,307.71 C831.68,303.77 832.76,303.49 841.23,303.28 ZM 613.43 262.03 C616.14,260.87 620.45,257.63 623.46,254.50 C626.36,251.47 629.21,249.00 629.79,249.00 C630.37,249.00 631.15,250.46 631.53,252.25 C632.73,257.97 640.15,264.00 645.97,264.00 C647.94,264.00 648.00,263.43 648.00,246.00 C648.00,236.10 647.66,228.01 647.25,228.02 C646.84,228.04 641.33,230.98 635.00,234.56 C610.82,248.26 603.69,250.70 595.67,248.05 C590.65,246.40 586.42,241.18 585.10,235.03 C584.45,232.00 584.00,218.56 584.00,202.20 C584.00,177.82 583.79,174.08 582.25,171.03 C580.26,167.10 576.26,164.47 570.68,163.45 L 566.85 162.75 L 567.18 201.62 L 567.50 240.50 L 570.36 246.00 C574.04,253.10 578.31,257.57 584.36,260.66 C593.64,265.40 604.38,265.91 613.43,262.03 ZM 708.71 262.28 C727.18,256.55 735.64,236.37 725.80,221.51 C721.46,214.96 714.63,210.80 698.64,204.98 C683.01,199.29 676.96,196.44 668.76,190.88 C665.61,188.75 662.79,187.00 662.51,187.00 C661.60,187.00 661.98,195.38 663.06,199.28 C665.31,207.39 673.43,213.08 691.00,218.89 C702.83,222.81 707.80,225.58 710.72,229.91 C716.34,238.25 710.83,246.91 698.27,249.49 C690.52,251.08 678.42,244.58 675.84,237.43 C675.16,235.54 674.22,234.00 673.77,234.00 C672.43,234.00 663.20,238.87 662.55,239.92 C661.62,241.43 663.67,249.08 665.77,251.92 C670.28,258.00 678.19,262.23 689.00,264.34 C692.92,265.10 702.99,264.05 708.71,262.28 ZM 794.86 263.45 L 800.09 261.89 L 799.80 255.70 L 799.50 249.50 L 789.50 249.41 C776.00,249.29 769.65,246.87 761.79,238.86 C753.12,230.01 751.88,222.87 758.34,218.93 C761.29,217.14 763.67,217.01 793.69,217.00 L 825.89 217.00 L 828.69 214.58 C831.31,212.33 831.50,211.66 831.44,204.79 C831.36,194.46 827.42,186.18 818.26,177.14 C807.79,166.80 798.52,163.07 783.22,163.02 C765.55,162.97 748.83,172.66 739.70,188.26 C737.16,192.59 734.49,200.82 735.34,201.68 C735.83,202.16 752.96,192.12 760.98,186.65 C771.76,179.29 784.72,176.98 795.21,180.55 C802.93,183.19 811.07,191.72 813.43,199.66 L 814.08 201.81 L 786.29 202.23 C756.31,202.68 753.85,203.07 745.83,208.62 C739.47,213.02 737.00,217.63 737.00,225.11 C737.00,233.92 740.31,240.44 749.43,249.58 C762.36,262.52 779.92,267.88 794.86,263.45 ZM 384.00 236.00 C384.00,217.14 383.66,208.00 382.95,208.00 C382.38,208.00 379.51,209.53 376.59,211.40 C368.43,216.62 367.00,220.41 367.00,236.75 C367.00,250.48 367.71,253.94 371.32,257.88 C373.50,260.26 380.39,263.94 382.75,263.98 C383.72,264.00 384.00,257.75 384.00,236.00 ZM 448.45 226.41 C448.40,190.09 448.36,189.40 446.05,183.55 C443.23,176.38 436.37,168.73 429.80,165.40 C425.86,163.40 423.58,163.00 416.18,163.00 C408.56,163.00 406.60,163.37 402.40,165.59 C396.34,168.78 393.68,171.22 390.20,176.72 C388.72,179.07 386.73,181.00 385.80,181.00 C384.24,181.00 384.06,178.65 383.80,153.75 C383.53,128.85 383.33,126.16 381.50,122.50 C379.51,118.52 374.41,114.87 368.96,113.52 L 366.42 112.89 L 366.82 156.69 C367.04,180.79 367.31,200.60 367.42,200.73 C367.53,200.85 375.92,196.23 386.06,190.46 C405.79,179.22 410.07,177.52 416.73,178.27 C422.31,178.90 425.48,181.10 428.23,186.26 C430.39,190.32 430.51,191.78 430.99,220.50 C431.59,255.96 431.75,256.60 440.96,261.26 C443.96,262.78 446.88,263.87 447.46,263.68 C448.16,263.44 448.48,251.17 448.45,226.41 ZM 524.00 262.13 C540.06,257.51 550.94,247.23 556.53,231.39 C559.98,221.61 559.98,208.17 556.52,197.30 C551.94,182.88 540.01,170.53 525.34,165.02 C520.24,163.10 518.05,162.87 508.00,163.24 C495.19,163.72 489.24,165.72 479.61,172.79 C473.68,177.14 466.42,186.74 464.96,192.15 C464.37,194.34 463.64,196.77 463.34,197.56 C462.26,200.37 465.70,198.92 478.03,191.34 C496.35,180.10 500.01,178.59 509.00,178.57 C518.80,178.54 525.09,181.29 532.01,188.60 C537.89,194.82 540.37,199.88 542.00,208.94 C546.82,235.76 520.61,256.99 497.31,245.13 C485.64,239.19 479.22,229.03 478.26,214.95 C477.96,210.58 477.36,207.00 476.93,207.00 C475.04,207.00 467.33,213.87 465.69,217.03 C461.63,224.80 466.67,240.92 476.01,250.01 C481.19,255.05 490.92,260.63 497.91,262.56 C504.86,264.47 516.53,264.28 524.00,262.13 ZM 636.90 218.55 C642.73,215.60 646.70,211.13 647.55,206.56 C647.90,204.71 648.03,196.43 647.84,188.17 C647.54,174.88 647.26,172.81 645.44,170.32 C643.06,167.08 637.40,163.98 633.31,163.70 L 630.50 163.50 L 630.23 190.99 C629.98,216.96 630.15,221.00 631.50,221.00 C631.81,221.00 634.24,219.90 636.90,218.55 ZM 719.33 187.91 C724.46,184.51 724.88,183.05 722.45,177.23 C720.22,171.90 717.30,169.12 710.50,165.87 C705.27,163.37 703.35,163.00 695.50,163.00 C687.64,163.00 685.74,163.37 680.50,165.88 C677.20,167.46 672.96,170.38 671.08,172.36 L 667.65 175.96 L 673.35 178.48 C680.23,181.52 681.00,181.55 686.00,179.00 C690.97,176.46 698.18,176.45 703.71,178.96 C706.87,180.39 708.62,182.13 710.71,185.92 C712.25,188.70 713.76,190.98 714.08,190.99 C714.40,190.99 716.76,189.61 719.33,187.91 ZM 519.00 580.97 C508.03,579.63 487.95,572.80 476.73,566.60 C445.97,549.61 425.90,524.36 416.39,490.73 C414.14,482.79 413.71,478.94 413.28,463.20 C412.83,446.88 413.02,443.84 414.96,435.20 C420.45,410.82 431.17,390.97 448.07,373.93 C466.85,354.99 490.36,343.22 518.00,338.92 C527.21,337.49 549.54,338.26 560.00,340.36 C596.46,347.71 627.19,371.11 644.87,405.00 C681.60,475.41 643.49,560.58 567.00,579.02 C557.11,581.40 531.16,582.46 519.00,580.97 ZM 546.20 519.90 C556.16,518.36 565.10,514.74 573.74,508.77 C584.46,501.36 591.07,492.62 595.82,479.58 C599.46,469.57 599.60,453.72 596.12,443.50 C588.97,422.47 574.67,407.84 554.50,400.92 C548.46,398.85 545.78,398.54 535.00,398.64 C524.37,398.74 521.43,399.14 515.35,401.29 C491.53,409.71 474.83,431.00 473.30,454.91 C472.54,466.87 474.15,475.78 478.85,485.43 C490.79,510.02 518.51,524.20 546.20,519.90 Z" fill="rgb(254,254,254)"/>
</g>
</svg>